<svg
  xmlns="http://www.w3.org/2000/svg"
  width="256"
  height="128"
  viewBox="0 0 256 128"
  role="img"
  aria-labelledby="keyboardTitle keyboardDesc"
>
  <title id="keyboardTitle">Colorful Keyboard Icon</title>
  <desc id="keyboardDesc">An illustration of a colorful computer keyboard</desc>
  <!-- Keyboard Base -->
  <rect
    x="10"
    y="10"
    width="236"
    height="108"
    rx="8"
    ry="8"
    fill="#f5f5f5"
    stroke="#ccc"
    stroke-width="2"
  />
  <!-- Key Rows with vibrant colors -->
  <g>
    <!-- Row 1 -->
    <rect x="20" y="20" width="16" height="16" rx="2" ry="2" fill="#ff9999" />
    <rect x="40" y="20" width="16" height="16" rx="2" ry="2" fill="#ffcc99" />
    <rect x="60" y="20" width="16" height="16" rx="2" ry="2" fill="#ffff99" />
    <rect x="80" y="20" width="16" height="16" rx="2" ry="2" fill="#99ff99" />
    <rect x="100" y="20" width="16" height="16" rx="2" ry="2" fill="#99ccff" />

    <!-- Row 2 -->
    <rect x="20" y="40" width="16" height="16" rx="2" ry="2" fill="#ff99cc" />
    <rect x="40" y="40" width="16" height="16" rx="2" ry="2" fill="#cc99ff" />
    <rect x="60" y="40" width="16" height="16" rx="2" ry="2" fill="#99ccff" />
    <rect x="80" y="40" width="16" height="16" rx="2" ry="2" fill="#99ffcc" />
    <rect x="100" y="40" width="16" height="16" rx="2" ry="2" fill="#ccff99" />

    <!-- Row 3 -->
    <rect x="20" y="60" width="16" height="16" rx="2" ry="2" fill="#cc99ff" />
    <rect x="40" y="60" width="16" height="16" rx="2" ry="2" fill="#ff99cc" />
    <rect x="60" y="60" width="16" height="16" rx="2" ry="2" fill="#ffcc99" />
    <rect x="80" y="60" width="16" height="16" rx="2" ry="2" fill="#ffff99" />
    <rect x="100" y="60" width="16" height="16" rx="2" ry="2" fill="#99ff99" />
  </g>
</svg>
